<svg width="31" height="31" viewBox="0 0 31 31" fill="none" xmlns="http://www.w3.org/2000/svg">
<g clip-path="url(#clip0_365_796)">
<path d="M18.9508 28.0161C18.2567 28.0161 17.6941 27.4512 17.6941 26.7544C17.6941 26.0576 18.2567 25.4927 18.9508 25.4927C19.6449 25.4927 20.2075 26.0576 20.2075 26.7544C20.2075 27.4512 19.6449 28.0161 18.9508 28.0161Z" stroke="white" stroke-width="1.83523" stroke-linecap="round" stroke-linejoin="round"/>
<path d="M5.12657 28.0161C4.4325 28.0161 3.86984 27.4512 3.86984 26.7544C3.86984 26.0576 4.4325 25.4927 5.12657 25.4927C5.82064 25.4927 6.3833 26.0576 6.3833 26.7544C6.3833 27.4512 5.82064 28.0161 5.12657 28.0161Z" stroke="white" stroke-width="1.83523" stroke-linecap="round" stroke-linejoin="round"/>
<path d="M29.0044 1.52002H23.9775L20.6094 18.4144C20.4945 18.9953 20.1797 19.5171 19.7202 19.8885C19.2607 20.2599 18.6858 20.4571 18.096 20.4458H5.88054C5.29075 20.4571 4.71577 20.2599 4.25627 19.8885C3.79676 19.5171 3.48199 18.9953 3.36707 18.4144L1.3563 7.82861H22.7207" stroke="white" stroke-width="1.83523" stroke-linecap="round" stroke-linejoin="round"/>
</g>
<defs>
<clipPath id="clip0_365_796">
<rect width="30.1616" height="30.2812" fill="white" transform="matrix(-1 0 0 1 30.2612 0.258301)"/>
</clipPath>
</defs>
</svg>
