<svg width="18" height="18" viewBox="0 0 18 18" fill="none" xmlns="http://www.w3.org/2000/svg">
<path d="M5.34375 7.875C5.11997 7.875 4.90536 7.96389 4.74713 8.12213C4.58889 8.28036 4.5 8.49497 4.5 8.71875C4.5 8.94253 4.58889 9.15714 4.74713 9.31537C4.90536 9.4736 5.11997 9.5625 5.34375 9.5625H10.4062C10.63 9.5625 10.8446 9.4736 11.0029 9.31537C11.1611 9.15714 11.25 8.94253 11.25 8.71875C11.25 8.49497 11.1611 8.28036 11.0029 8.12213C10.8446 7.96389 10.63 7.875 10.4062 7.875H5.34375ZM5.625 5.34375C5.625 5.11997 5.71389 4.90536 5.87213 4.74713C6.03036 4.58889 6.24497 4.5 6.46875 4.5H12.6562C12.88 4.5 13.0946 4.58889 13.2529 4.74713C13.4111 4.90536 13.5 5.11997 13.5 5.34375C13.5 5.56753 13.4111 5.78214 13.2529 5.94037C13.0946 6.09861 12.88 6.1875 12.6562 6.1875H6.46875C6.24497 6.1875 6.03036 6.09861 5.87213 5.94037C5.71389 5.78214 5.625 5.56753 5.625 5.34375ZM7.59375 11.25C7.36997 11.25 7.15536 11.3389 6.99713 11.4971C6.83889 11.6554 6.75 11.87 6.75 12.0938C6.75 12.3175 6.83889 12.5321 6.99713 12.6904C7.15536 12.8486 7.36997 12.9375 7.59375 12.9375H12.6562C12.88 12.9375 13.0946 12.8486 13.2529 12.6904C13.4111 12.5321 13.5 12.3175 13.5 12.0938C13.5 11.87 13.4111 11.6554 13.2529 11.4971C13.0946 11.3389 12.88 11.25 12.6562 11.25H7.59375Z" fill="black"/>
<path d="M0 1.96875C0 0.882 0.882 0 1.96875 0H16.0312C17.118 0 18 0.882 18 1.96875V16.0312C18 16.5534 17.7926 17.0542 17.4234 17.4234C17.0542 17.7926 16.5534 18 16.0312 18H1.96875C1.44661 18 0.945846 17.7926 0.576634 17.4234C0.207421 17.0542 0 16.5534 0 16.0312L0 1.96875ZM1.96875 1.6875C1.89416 1.6875 1.82262 1.71713 1.76988 1.76988C1.71713 1.82262 1.6875 1.89416 1.6875 1.96875V16.0312C1.6875 16.1865 1.8135 16.3125 1.96875 16.3125H16.0312C16.1058 16.3125 16.1774 16.2829 16.2301 16.2301C16.2829 16.1774 16.3125 16.1058 16.3125 16.0312V1.96875C16.3125 1.89416 16.2829 1.82262 16.2301 1.76988C16.1774 1.71713 16.1058 1.6875 16.0312 1.6875H1.96875Z" fill="black"/>
</svg>
