<svg width="53" height="53" viewBox="0 0 53 53" fill="none" xmlns="http://www.w3.org/2000/svg">
<g id="Vector">
<path id="Vector_2" d="M42.4905 26.4825C41.3339 26.4825 40.2247 26.0231 39.4068 25.2052C38.589 24.3874 38.1295 23.2781 38.1295 22.1215C38.1295 20.9649 38.589 19.8557 39.4068 19.0378C40.2247 18.22 41.3339 17.7605 42.4905 17.7605C43.6471 17.7605 44.7564 18.22 45.5742 19.0378C46.3921 19.8557 46.8516 20.9649 46.8516 22.1215C46.8516 23.2781 46.3921 24.3874 45.5742 25.2052C44.7564 26.0231 43.6471 26.4825 42.4905 26.4825ZM33.7685 14.8531C32.6119 14.8531 31.5026 14.3937 30.6848 13.5758C29.8669 12.758 29.4075 11.6487 29.4075 10.4921C29.4075 9.33551 29.8669 8.22627 30.6848 7.40842C31.5026 6.59057 32.6119 6.1311 33.7685 6.1311C34.9251 6.1311 36.0343 6.59057 36.8522 7.40842C37.67 8.22627 38.1295 9.33551 38.1295 10.4921C38.1295 11.6487 37.67 12.758 36.8522 13.5758C36.0343 14.3937 34.9251 14.8531 33.7685 14.8531ZM19.2317 14.8531C18.0751 14.8531 16.9659 14.3937 16.148 13.5758C15.3302 12.758 14.8707 11.6487 14.8707 10.4921C14.8707 9.33551 15.3302 8.22627 16.148 7.40842C16.9659 6.59057 18.0751 6.1311 19.2317 6.1311C20.3884 6.1311 21.4976 6.59057 22.3155 7.40842C23.1333 8.22627 23.5928 9.33551 23.5928 10.4921C23.5928 11.6487 23.1333 12.758 22.3155 13.5758C21.4976 14.3937 20.3884 14.8531 19.2317 14.8531ZM10.5097 26.4825C9.35309 26.4825 8.24384 26.0231 7.42599 25.2052C6.60814 24.3874 6.14868 23.2781 6.14868 22.1215C6.14868 20.9649 6.60814 19.8557 7.42599 19.0378C8.24384 18.22 9.35309 17.7605 10.5097 17.7605C11.6663 17.7605 12.7756 18.22 13.5934 19.0378C14.4113 19.8557 14.8707 20.9649 14.8707 22.1215C14.8707 23.2781 14.4113 24.3874 13.5934 25.2052C12.7756 26.0231 11.6663 26.4825 10.5097 26.4825ZM26.5001 0.316406C19.5604 0.316406 12.905 3.07319 7.99787 7.98029C3.09076 12.8874 0.333984 19.5428 0.333984 26.4825C0.333984 33.4222 3.09076 40.0777 7.99787 44.9848C12.905 49.8919 19.5604 52.6487 26.5001 52.6487C27.6567 52.6487 28.766 52.1892 29.5838 51.3714C30.4017 50.5535 30.8611 49.4443 30.8611 48.2876C30.8611 47.1538 30.425 46.1362 29.7273 45.3803C29.0586 44.5953 28.6225 43.5777 28.6225 42.473C28.6225 41.3163 29.0819 40.2071 29.8998 39.3892C30.7176 38.5714 31.8269 38.1119 32.9835 38.1119H38.1295C41.9849 38.1119 45.6824 36.5804 48.4085 33.8542C51.1347 31.128 52.6662 27.4306 52.6662 23.5752C52.6662 10.7247 40.9496 0.316406 26.5001 0.316406Z" fill="black"/>
</g>
</svg>
