<svg width="18" height="18" viewBox="0 0 18 18" fill="none" xmlns="http://www.w3.org/2000/svg">
<g clip-path="url(#clip0_234_1745)">
<path d="M17.8032 0.134895C17.8956 0.213715 17.9599 0.320294 17.9867 0.43871C18.0134 0.557127 18.0012 0.681024 17.9517 0.791895C16.2305 4.65065 12.6158 9.98314 9.96984 12.7619C9.2273 13.5382 8.31289 14.1293 7.30021 14.4876C7.27996 14.743 7.23271 15.0929 7.12021 15.4641C6.89409 16.2055 6.36984 17.128 5.19871 17.4216C4.06459 17.6922 2.88908 17.7426 1.73596 17.5701C1.52183 17.5348 1.31053 17.4841 1.10371 17.4183C0.912937 17.3597 0.735031 17.2654 0.579464 17.1404C0.476546 17.0538 0.397535 16.9422 0.349964 16.8164C0.290035 16.6554 0.291638 16.4779 0.354464 16.318C0.461339 16.0424 0.709964 15.8905 0.873089 15.8095C1.31634 15.5879 1.57621 15.2999 1.84846 14.8803C1.95534 14.7183 2.05546 14.5461 2.17134 14.3493L2.30296 14.1265C2.47284 13.8396 2.66971 13.519 2.91721 13.1725C3.51121 12.3411 4.26834 12.1319 4.88146 12.1645C5.02396 12.1735 5.15446 12.1915 5.27296 12.2185C5.34271 12.025 5.43271 11.791 5.54071 11.5345C5.83434 10.8381 6.28096 9.93814 6.87609 9.20689C9.32409 6.20315 13.8286 2.22515 17.1327 0.089895C17.2344 0.0242395 17.3546 -0.00684425 17.4754 0.00126298C17.5962 0.00937021 17.7112 0.0562357 17.8032 0.134895Z" fill="black"/>
</g>
<defs>
<clipPath id="clip0_234_1745">
<rect width="18" height="18" fill="white"/>
</clipPath>
</defs>
</svg>
